<mxfile host="app.diagrams.net" modified="2023-06-24T17:43:06.767Z" agent="Mozilla/5.0 (Windows NT 10.0; Win64; x64; rv:109.0) Gecko/20100101 Firefox/114.0" etag="nAJVNjQek8S1p_IdasOY" version="21.5.0" type="github">
  <diagram id="C5RBs43oDa-KdzZeNtuy" name="Page-1">
    <mxGraphModel dx="2394" dy="1317" grid="1" gridSize="10" guides="1" tooltips="1" connect="1" arrows="1" fold="1" page="1" pageScale="1" pageWidth="827" pageHeight="1169" math="0" shadow="0">
      <root>
        <mxCell id="WIyWlLk6GJQsqaUBKTNV-0" />
        <mxCell id="WIyWlLk6GJQsqaUBKTNV-1" parent="WIyWlLk6GJQsqaUBKTNV-0" />
        <mxCell id="MR2TuQrS4FQkN64LWe5N-7" style="edgeStyle=orthogonalEdgeStyle;rounded=0;orthogonalLoop=1;jettySize=auto;html=1;exitX=0;exitY=0.5;exitDx=0;exitDy=0;exitPerimeter=0;" parent="WIyWlLk6GJQsqaUBKTNV-1" source="MR2TuQrS4FQkN64LWe5N-6" edge="1">
          <mxGeometry relative="1" as="geometry">
            <mxPoint x="403" y="260" as="targetPoint" />
          </mxGeometry>
        </mxCell>
        <mxCell id="MR2TuQrS4FQkN64LWe5N-6" value="" style="strokeWidth=2;html=1;shape=mxgraph.flowchart.annotation_2;align=left;labelPosition=right;pointerEvents=1;" parent="WIyWlLk6GJQsqaUBKTNV-1" vertex="1">
          <mxGeometry x="453" y="180" width="50" height="80" as="geometry" />
        </mxCell>
        <mxCell id="MR2TuQrS4FQkN64LWe5N-8" value="Start" style="strokeWidth=2;html=1;shape=mxgraph.flowchart.start_1;whiteSpace=wrap;" parent="WIyWlLk6GJQsqaUBKTNV-1" vertex="1">
          <mxGeometry x="303" y="230" width="100" height="60" as="geometry" />
        </mxCell>
        <mxCell id="MR2TuQrS4FQkN64LWe5N-9" value="Input: int n" style="shape=parallelogram;html=1;strokeWidth=2;perimeter=parallelogramPerimeter;whiteSpace=wrap;rounded=1;arcSize=12;size=0.23;" parent="WIyWlLk6GJQsqaUBKTNV-1" vertex="1">
          <mxGeometry x="303" y="350" width="100" height="60" as="geometry" />
        </mxCell>
        <mxCell id="MR2TuQrS4FQkN64LWe5N-10" value="" style="endArrow=classic;html=1;rounded=0;exitX=0.481;exitY=1.048;exitDx=0;exitDy=0;exitPerimeter=0;entryX=0.5;entryY=0;entryDx=0;entryDy=0;" parent="WIyWlLk6GJQsqaUBKTNV-1" source="MR2TuQrS4FQkN64LWe5N-8" target="MR2TuQrS4FQkN64LWe5N-9" edge="1">
          <mxGeometry width="50" height="50" relative="1" as="geometry">
            <mxPoint x="413" y="370" as="sourcePoint" />
            <mxPoint x="463" y="320" as="targetPoint" />
          </mxGeometry>
        </mxCell>
        <mxCell id="MR2TuQrS4FQkN64LWe5N-11" value="Initialize int nCopy, equal to n" style="rounded=0;whiteSpace=wrap;html=1;" parent="WIyWlLk6GJQsqaUBKTNV-1" vertex="1">
          <mxGeometry x="293" y="470" width="120" height="60" as="geometry" />
        </mxCell>
        <mxCell id="MR2TuQrS4FQkN64LWe5N-12" value="Is nCopy &amp;gt; 0" style="rhombus;whiteSpace=wrap;html=1;" parent="WIyWlLk6GJQsqaUBKTNV-1" vertex="1">
          <mxGeometry x="313" y="610" width="80" height="80" as="geometry" />
        </mxCell>
        <mxCell id="MR2TuQrS4FQkN64LWe5N-13" value="Decrease nCopy by 1" style="rounded=0;whiteSpace=wrap;html=1;" parent="WIyWlLk6GJQsqaUBKTNV-1" vertex="1">
          <mxGeometry x="293" y="870" width="120" height="60" as="geometry" />
        </mxCell>
        <mxCell id="MR2TuQrS4FQkN64LWe5N-14" value="Print &#39;_&#39;" style="rounded=0;whiteSpace=wrap;html=1;" parent="WIyWlLk6GJQsqaUBKTNV-1" vertex="1">
          <mxGeometry x="293" y="750" width="120" height="60" as="geometry" />
        </mxCell>
        <mxCell id="MR2TuQrS4FQkN64LWe5N-15" value="Print \n" style="rounded=0;whiteSpace=wrap;html=1;" parent="WIyWlLk6GJQsqaUBKTNV-1" vertex="1">
          <mxGeometry x="456" y="620" width="120" height="60" as="geometry" />
        </mxCell>
        <mxCell id="MR2TuQrS4FQkN64LWe5N-16" value="End" style="strokeWidth=2;html=1;shape=mxgraph.flowchart.start_1;whiteSpace=wrap;" parent="WIyWlLk6GJQsqaUBKTNV-1" vertex="1">
          <mxGeometry x="662" y="620" width="100" height="60" as="geometry" />
        </mxCell>
        <mxCell id="MR2TuQrS4FQkN64LWe5N-17" value="" style="endArrow=classic;html=1;rounded=0;entryX=0;entryY=0.5;entryDx=0;entryDy=0;entryPerimeter=0;exitX=1.029;exitY=0.483;exitDx=0;exitDy=0;exitPerimeter=0;" parent="WIyWlLk6GJQsqaUBKTNV-1" source="MR2TuQrS4FQkN64LWe5N-15" target="MR2TuQrS4FQkN64LWe5N-16" edge="1">
          <mxGeometry width="50" height="50" relative="1" as="geometry">
            <mxPoint x="432" y="780" as="sourcePoint" />
            <mxPoint x="482" y="730" as="targetPoint" />
          </mxGeometry>
        </mxCell>
        <mxCell id="MR2TuQrS4FQkN64LWe5N-18" value="" style="endArrow=classic;html=1;rounded=0;entryX=0;entryY=0.5;entryDx=0;entryDy=0;exitX=1;exitY=0.5;exitDx=0;exitDy=0;" parent="WIyWlLk6GJQsqaUBKTNV-1" source="MR2TuQrS4FQkN64LWe5N-12" target="MR2TuQrS4FQkN64LWe5N-15" edge="1">
          <mxGeometry width="50" height="50" relative="1" as="geometry">
            <mxPoint x="432" y="780" as="sourcePoint" />
            <mxPoint x="482" y="730" as="targetPoint" />
          </mxGeometry>
        </mxCell>
        <mxCell id="MR2TuQrS4FQkN64LWe5N-19" value="" style="endArrow=classic;html=1;rounded=0;exitX=0.5;exitY=1;exitDx=0;exitDy=0;entryX=0.501;entryY=-0.035;entryDx=0;entryDy=0;entryPerimeter=0;" parent="WIyWlLk6GJQsqaUBKTNV-1" source="MR2TuQrS4FQkN64LWe5N-12" target="MR2TuQrS4FQkN64LWe5N-14" edge="1">
          <mxGeometry width="50" height="50" relative="1" as="geometry">
            <mxPoint x="432" y="780" as="sourcePoint" />
            <mxPoint x="482" y="730" as="targetPoint" />
          </mxGeometry>
        </mxCell>
        <mxCell id="MR2TuQrS4FQkN64LWe5N-20" value="" style="endArrow=classic;html=1;rounded=0;exitX=0.5;exitY=1;exitDx=0;exitDy=0;entryX=0.5;entryY=0;entryDx=0;entryDy=0;" parent="WIyWlLk6GJQsqaUBKTNV-1" source="MR2TuQrS4FQkN64LWe5N-14" target="MR2TuQrS4FQkN64LWe5N-13" edge="1">
          <mxGeometry width="50" height="50" relative="1" as="geometry">
            <mxPoint x="432" y="780" as="sourcePoint" />
            <mxPoint x="482" y="730" as="targetPoint" />
          </mxGeometry>
        </mxCell>
        <mxCell id="MR2TuQrS4FQkN64LWe5N-21" value="" style="curved=1;endArrow=classic;html=1;rounded=0;exitX=0.5;exitY=1;exitDx=0;exitDy=0;" parent="WIyWlLk6GJQsqaUBKTNV-1" source="MR2TuQrS4FQkN64LWe5N-13" edge="1">
          <mxGeometry width="50" height="50" relative="1" as="geometry">
            <mxPoint x="355.28" y="941.5" as="sourcePoint" />
            <mxPoint x="312" y="650" as="targetPoint" />
            <Array as="points">
              <mxPoint x="352" y="960" />
              <mxPoint x="302" y="960" />
              <mxPoint x="242" y="960" />
              <mxPoint x="242" y="820" />
              <mxPoint x="242" y="650" />
            </Array>
          </mxGeometry>
        </mxCell>
        <mxCell id="MR2TuQrS4FQkN64LWe5N-22" value="" style="endArrow=classic;html=1;rounded=0;exitX=0.513;exitY=1.034;exitDx=0;exitDy=0;exitPerimeter=0;entryX=0.5;entryY=0;entryDx=0;entryDy=0;" parent="WIyWlLk6GJQsqaUBKTNV-1" source="MR2TuQrS4FQkN64LWe5N-11" target="MR2TuQrS4FQkN64LWe5N-12" edge="1">
          <mxGeometry width="50" height="50" relative="1" as="geometry">
            <mxPoint x="432" y="500" as="sourcePoint" />
            <mxPoint x="482" y="450" as="targetPoint" />
          </mxGeometry>
        </mxCell>
        <mxCell id="MR2TuQrS4FQkN64LWe5N-23" value="" style="endArrow=classic;html=1;rounded=0;exitX=0.468;exitY=1.02;exitDx=0;exitDy=0;exitPerimeter=0;entryX=0.5;entryY=0;entryDx=0;entryDy=0;" parent="WIyWlLk6GJQsqaUBKTNV-1" source="MR2TuQrS4FQkN64LWe5N-9" target="MR2TuQrS4FQkN64LWe5N-11" edge="1">
          <mxGeometry width="50" height="50" relative="1" as="geometry">
            <mxPoint x="432" y="500" as="sourcePoint" />
            <mxPoint x="482" y="450" as="targetPoint" />
          </mxGeometry>
        </mxCell>
        <mxCell id="MR2TuQrS4FQkN64LWe5N-24" value="" style="strokeWidth=2;html=1;shape=mxgraph.flowchart.annotation_2;align=left;labelPosition=right;pointerEvents=1;direction=west;" parent="WIyWlLk6GJQsqaUBKTNV-1" vertex="1">
          <mxGeometry x="122" y="550" width="40" height="100" as="geometry" />
        </mxCell>
        <mxCell id="MR2TuQrS4FQkN64LWe5N-25" value="" style="curved=1;endArrow=classic;html=1;rounded=0;exitX=0;exitY=0.5;exitDx=0;exitDy=0;exitPerimeter=0;entryX=0.244;entryY=0.227;entryDx=0;entryDy=0;entryPerimeter=0;" parent="WIyWlLk6GJQsqaUBKTNV-1" source="MR2TuQrS4FQkN64LWe5N-24" target="MR2TuQrS4FQkN64LWe5N-12" edge="1">
          <mxGeometry width="50" height="50" relative="1" as="geometry">
            <mxPoint x="172" y="600" as="sourcePoint" />
            <mxPoint x="222" y="550" as="targetPoint" />
            <Array as="points">
              <mxPoint x="202" y="600" />
              <mxPoint x="232" y="630" />
            </Array>
          </mxGeometry>
        </mxCell>
        <mxCell id="sqRo1149xMeWvwWAzkwX-0" value="While loop condition" style="text;strokeColor=none;align=center;fillColor=none;html=1;verticalAlign=middle;whiteSpace=wrap;rounded=0;" vertex="1" parent="WIyWlLk6GJQsqaUBKTNV-1">
          <mxGeometry x="52" y="580" width="80" height="40" as="geometry" />
        </mxCell>
        <mxCell id="sqRo1149xMeWvwWAzkwX-1" value="False" style="text;html=1;align=center;verticalAlign=middle;resizable=0;points=[];autosize=1;strokeColor=none;fillColor=none;" vertex="1" parent="WIyWlLk6GJQsqaUBKTNV-1">
          <mxGeometry x="396" y="618" width="50" height="30" as="geometry" />
        </mxCell>
        <mxCell id="sqRo1149xMeWvwWAzkwX-2" value="True" style="text;html=1;align=center;verticalAlign=middle;resizable=0;points=[];autosize=1;strokeColor=none;fillColor=none;" vertex="1" parent="WIyWlLk6GJQsqaUBKTNV-1">
          <mxGeometry x="346" y="698" width="50" height="30" as="geometry" />
        </mxCell>
        <mxCell id="sqRo1149xMeWvwWAzkwX-3" value="Function void print_line (int n);" style="text;html=1;align=center;verticalAlign=middle;resizable=0;points=[];autosize=1;strokeColor=none;fillColor=none;" vertex="1" parent="WIyWlLk6GJQsqaUBKTNV-1">
          <mxGeometry x="482" y="205" width="180" height="30" as="geometry" />
        </mxCell>
      </root>
    </mxGraphModel>
  </diagram>
</mxfile>
